PathFileType	4	(X/Y/Z)	c:\Git\powerlifing_model_clean\simulations\HC835B\Session1\HC835B_STD_0001\marker_experimental.trc
DataRate	CameraRate	NumFrames	NumMarkers	Units	OrigDataRate	OrigDataStartFrame	OrigNumFrames
240.000000	240.000000	4	48	mm	240.000000	84	337
Frame#	Time	RPSI			LPSI			RASI			LASI			RGT			RTH1			RTH2			RTH3			RTH4			RLK			RMK			RSK1			RSK2			RSK3			RSK4			RLA			RMA			RCAL1			RCAL2			RCAL3			RST			RPT			RTN			RFMB			RSMB			RVMB			RFMH			RSMH			RVMH			RPM			LGT			LTH1			LTH2			LTH3			LTH4			LLK			LMK			LSK1			LSK2			LSK3			LSK4			LLA			LMA			LCAL1			LCAL2			LCAL3			LFMH			LVMH			
		X1	Y1	Z1	X2	Y2	Z2	X3	Y3	Z3	X4	Y4	Z4	X5	Y5	Z5	X6	Y6	Z6	X7	Y7	Z7	X8	Y8	Z8	X9	Y9	Z9	X10	Y10	Z10	X11	Y11	Z11	X12	Y12	Z12	X13	Y13	Z13	X14	Y14	Z14	X15	Y15	Z15	X16	Y16	Z16	X17	Y17	Z17	X18	Y18	Z18	X19	Y19	Z19	X20	Y20	Z20	X21	Y21	Z21	X22	Y22	Z22	X23	Y23	Z23	X24	Y24	Z24	X25	Y25	Z25	X26	Y26	Z26	X27	Y27	Z27	X28	Y28	Z28	X29	Y29	Z29	X30	Y30	Z30	X31	Y31	Z31	X32	Y32	Z32	X33	Y33	Z33	X34	Y34	Z34	X35	Y35	Z35	X36	Y36	Z36	X37	Y37	Z37	X38	Y38	Z38	X39	Y39	Z39	X40	Y40	Z40	X41	Y41	Z41	X42	Y42	Z42	X43	Y43	Z43	X44	Y44	Z44	X45	Y45	Z45	X46	Y46	Z46	X47	Y47	Z47	X48	Y48	Z48	

85	0.35	495.5591735839845	1162.216552734375	-353.3820800781251	387.1451110839845	1159.618774414063	-349.6413269042969	555.1463012695314	1105.496337890625	-557.5471191406251	316.0682983398438	1101.121337890625	-554.9675903320314	637.5762329101564	1023.965698242188	-449.1673278808595	639.9921264648439	836.4593505859377	-460.6927185058595	627.7283935546876	819.585388183594	-517.8796386718751	630.1484375000001	753.6652221679689	-475.8105468750001	606.6793212890626	737.6305541992189	-527.1137084960939	609.3204345703126	552.7310791015626	-457.7816162109376	483.6792907714845	538.6685791015626	-447.2594299316407	613.1765136718751	307.2236633300782	-360.8424682617188	615.0723876953126	287.8865356445313	-419.2722778320314	611.4914550781251	249.5007781982422	-372.0833129882813	600.4127807617189	231.7606811523438	-428.0921020507814	605.4000854492189	114.653060913086	-359.3762817382813	522.0822753906251	124.3215026855469	-404.234588623047	560.3577880859376	95.52674865722658	-304.7665710449219	528.7563476562501	58.19868087768556	-314.3470153808594	592.9185180664064	58.7970657348633	-308.7727966308594	517.3773193359376	76.21612548828126	-380.6306762695313	618.2738037109376	72.16108703613283	-367.1134948730469	530.4492797851564	94.48439025878908	-438.3260192871095	537.0191040039064	78.13722229003908	-469.4105834960939	586.2968139648439	101.8434677124024	-477.4448242187501	632.2467041015626	47.64110946655274	-410.2330932617189	537.3386230468751	50.71263504028322	-527.2991943359376	592.0108642578126	65.8410110473633	-537.5124511718751	648.2321166992189	42.27716064453126	-490.5808715820314	582.5818481445314	53.31491851806642	-596.8637084960939	245.1385955810547	1013.039489746094	-443.644012451172	239.3240966796876	830.917175292969	-443.3153381347657	242.462387084961	813.7789306640627	-501.5561523437501	243.4513244628907	746.3242187500001	-456.8308105468751	263.4071044921876	731.2125244140626	-512.6322631835939	265.9145812988282	564.1788940429689	-441.8677978515626	396.8943481445314	553.5672607421876	-442.9012145996095	257.4044494628907	300.2640991210938	-354.1034545898438	251.4131774902344	279.1810302734376	-403.0877075195314	257.2832946777344	244.8738403320313	-367.8045654296876	267.6077880859376	225.7022857666016	-419.9058837890626	259.3551330566407	115.4105987548828	-363.1512145996094	349.3963317871094	123.7036514282227	-400.6426696777345	306.6059875488282	94.76411437988283	-303.2220153808594	275.7962646484376	58.1696243286133	-303.4589843750001	334.1384277343751	56.38443756103517	-307.9340820312501	344.7178344726563	55.29268264770509	-530.6202392578126	229.7619018554688	41.51615142822266	-492.9902954101564	
86	0.3541666666666667	495.545135498047	1162.205810546875	-353.4133605957032	387.1316528320314	1159.611083984375	-349.6860351562501	555.1546020507814	1105.490966796875	-557.5830078125001	316.0778808593751	1101.129638671875	-554.9857788085939	637.5570068359376	1023.960571289063	-449.155731201172	639.9541625976564	836.3807373046877	-460.7217712402345	627.7352905273439	819.589538574219	-517.8897705078126	630.1205444335939	753.6471557617189	-475.8310852050782	606.6724853515626	737.6083984375001	-527.1343383789064	609.3321533203126	552.7426757812501	-457.7817993164064	483.6604919433595	538.6774902343751	-447.2818298339845	613.1812744140626	307.2338256835938	-360.8522338867188	615.1073608398439	287.9122314453126	-419.2702941894532	611.4991455078126	249.4884033203126	-372.0884399414063	600.4273071289064	231.7572174072266	-428.1002502441407	605.3565063476564	114.6959838867188	-359.2969970703126	522.0673217773439	124.270866394043	-404.2323303222657	560.3613281250001	95.51259613037111	-304.7724609375001	528.7669677734376	58.2154006958008	-314.3220214843751	592.8272705078126	58.80235671997072	-308.7919616699219	517.3674316406251	76.2271194458008	-380.6368713378907	618.4168701171876	72.27854919433595	-367.0207519531251	530.4920654296876	94.4935989379883	-438.3084411621095	537.0201416015626	78.1112518310547	-469.4209289550782	586.3036499023439	101.8323135375977	-477.4494018554689	632.3599853515626	47.72546768188477	-410.2029724121095	537.2950439453126	50.74024963378908	-527.3480834960939	592.0023803710939	65.83192443847658	-537.5181884765626	648.2411499023439	42.27544403076173	-490.5811767578126	582.5742187500001	53.31441879272462	-596.8404541015626	245.0735626220704	1013.072448730469	-443.6226806640626	239.3188476562501	830.910095214844	-443.3521423339845	242.4517974853516	813.7861938476565	-501.5925903320314	243.4513244628907	746.3010864257814	-456.8762512207032	263.3778686523438	731.2155761718751	-512.6665039062501	265.9269714355469	564.1610107421876	-441.8832397460939	396.9014587402345	553.5693359375001	-442.9250793457032	257.4291076660157	300.2681274414063	-354.1489257812501	251.4375305175782	279.2003173828126	-403.1139526367189	257.2655639648438	244.8686676025391	-367.8133850097657	267.6153869628907	225.6764678955079	-419.9204406738282	259.3599853515626	115.415153503418	-363.1473999023438	349.4346618652344	123.6933288574219	-400.6345214843751	306.6013793945313	94.78032684326173	-303.2203063964844	275.8049011230469	58.14815139770509	-303.4608154296876	334.1047668457032	56.39962005615236	-307.9105529785157	344.6951599121094	55.2578582763672	-530.6281738281251	229.7548522949219	41.53005599975587	-492.981903076172	
87	0.3583333333333333	495.5180053710939	1162.202270507813	-353.4292907714844	387.0964355468751	1159.613159179688	-349.7237243652344	555.1616821289064	1105.512084960938	-557.5983276367189	316.0227966308594	1101.120361328125	-555.0280761718751	637.5598754882814	1023.969116210938	-449.160614013672	639.9262084960939	836.3715820312502	-460.742156982422	627.7231445312501	819.580749511719	-517.9178466796876	630.1341552734376	753.6662597656251	-475.8518066406251	606.6906127929689	737.6087036132814	-527.1484375000001	609.3504638671876	552.7389526367189	-457.8050537109376	483.6955566406251	538.7048950195314	-447.2865295410157	613.1599121093751	307.2598876953126	-360.8542480468751	615.0699462890626	287.9011840820313	-419.2613830566407	611.4900512695314	249.4802703857422	-372.0890502929688	600.4142456054689	231.7734832763672	-428.094451904297	605.4056396484376	114.6864318847657	-359.3451232910157	522.0101318359376	124.1621780395508	-404.2189331054689	560.3603515625001	95.4983367919922	-304.7720642089844	528.7409057617189	58.19628906250001	-314.3841247558594	592.8342285156251	58.80466461181642	-308.7952880859376	517.3630371093751	76.23230743408205	-380.6204833984376	618.4619750976564	72.28234863281251	-367.0430603027344	530.4794311523439	94.50759124755861	-438.3437500000001	536.9890747070314	78.11054992675783	-469.3876342773439	586.2280273437501	101.7746276855469	-477.4481201171876	632.2598266601564	47.66241455078126	-410.2208251953126	537.3128662109376	50.73631286621095	-527.3224487304689	591.9995117187501	65.84255218505861	-537.5202636718751	648.2582397460939	42.29858398437501	-490.590301513672	582.5836181640626	53.33161926269533	-596.8352661132814	245.0681152343751	1013.0556640625	-443.6491088867189	239.3271636962891	830.8985595703127	-443.3695373535157	242.4126586914063	813.7854614257815	-501.6234741210939	243.4351806640626	746.3049926757814	-456.8726806640626	263.4070129394532	731.1842041015626	-512.6894531250001	265.8913879394532	564.1741333007814	-441.8919982910157	396.9047241210939	553.6036987304689	-442.9253234863282	257.4232788085938	300.2140808105469	-354.1576232910157	251.4242706298829	279.1667785644532	-403.0976562500001	257.2730102539063	244.8839721679688	-367.8109741210938	267.5773010253907	225.6896667480469	-419.9178771972657	259.3669128417969	115.3637390136719	-363.1840515136719	349.4298706054688	123.7026596069336	-400.6452026367189	306.6041259765626	94.77731323242189	-303.2013854980469	275.7909240722657	58.18910598754884	-303.4681396484376	334.1308288574219	56.37230300903322	-307.9357299804688	344.7423706054688	55.29153442382814	-530.6337280273439	229.7585754394532	41.53558731079102	-492.988250732422	
88	0.3625	495.4902343750001	1162.203369140625	-353.4617004394532	387.0777587890626	1159.614135742188	-349.7341003417969	555.1540527343751	1105.498901367188	-557.6062622070314	316.0876770019532	1101.09521484375	-555.0390014648439	637.5267944335939	1023.955749511719	-449.2119140625001	639.9063110351564	836.3806152343752	-460.7511596679689	627.6998291015626	819.5766601562502	-517.9117431640626	630.0667724609376	753.6130371093751	-475.8526611328126	606.6694946289064	737.6026611328126	-527.1427612304689	609.3295288085939	552.7337646484376	-457.8082580566407	483.6632385253907	538.6583251953126	-447.2796020507814	613.1760253906251	307.2492370605469	-360.8694152832032	615.0879516601564	287.8954772949219	-419.274139404297	611.5056152343751	249.4881286621094	-372.0767517089844	600.3940429687501	231.7492828369141	-428.1026611328126	605.3729248046876	114.6192626953125	-359.4066467285157	522.0597534179689	124.2969131469727	-404.2614746093751	560.3736572265626	95.5066375732422	-304.7978515625001	528.7597656250001	58.19988250732423	-314.3675842285157	592.9240112304689	58.8042335510254	-308.7679138183594	517.3643798828126	76.2253875732422	-380.6329650878907	618.2619628906251	72.16265869140626	-367.1224365234376	530.4222412109376	94.49935913085939	-438.3134765625001	536.9935913085939	78.14854431152345	-469.4581604003907	586.2314453125001	101.7525634765625	-477.4285888671876	632.3079223632814	47.71384429931641	-410.2173767089845	537.2919921875001	50.76563262939455	-527.3204345703126	591.9850463867189	65.84394836425783	-537.5243530273439	648.2443847656251	42.28046035766602	-490.5869750976564	582.5628662109376	53.31823730468751	-596.8729858398439	245.0527038574219	1013.03759765625	-443.7208862304689	239.2973022460938	830.903015136719	-443.4022827148439	242.4333953857422	813.7725219726565	-501.6372375488282	243.3793029785157	746.3046264648439	-456.9302673339845	263.3747863769532	731.1844482421876	-512.7150878906251	265.9158325195313	564.1666259765626	-441.9170532226564	396.8875122070314	553.5622558593751	-442.9404602050782	257.4130554199219	300.2771606445313	-354.1293334960938	251.4345397949219	279.1296997070313	-403.0833740234376	257.2583618164063	244.8994598388672	-367.8088073730469	267.6005554199219	225.6843261718751	-419.9217529296876	259.3496398925782	115.4078216552735	-363.1578979492188	349.4450073242188	123.7150497436524	-400.647430419922	306.6231994628907	94.78030395507814	-303.2062988281251	275.8084716796876	58.1599578857422	-303.4686279296876	334.1284484863282	56.38289642333986	-307.9295654296876	344.7082214355469	55.28311157226564	-530.6125488281251	229.727035522461	41.53881835937501	-492.9768066406251	
